<?xml version="1.0" encoding="iso-8859-1"?>
<!-- Generator: Adobe Illustrator 19.0.0, SVG Export Plug-In . SVG Version: 6.00 Build 0)  -->
<svg version="1.1" id="Layer_1" xmlns="http://www.w3.org/2000/svg" xmlns:xlink="http://www.w3.org/1999/xlink" x="0px" y="0px"
	 viewBox="0 0 511.998 511.998" style="enable-background:new 0 0 511.998 511.998;" xml:space="preserve">
<g>
	<path style="fill:#7F40BD;" d="M6.212,493.462h101.231c3.431,0,6.212-2.78,6.212-6.212V41.29c0-3.431-2.78-6.212-6.212-6.212H6.212
		C2.78,35.079,0,37.859,0,41.29v445.96C0,490.681,2.78,493.462,6.212,493.462z"/>
	<path style="fill:#7F40BD;" d="M309.23,500.739c40.381,0,75.88-16.531,97.891-44.903l3.111,32.015
		c0.311,3.183,2.984,5.61,6.182,5.61h89.322c0.02,0,0.04,0,0.05,0c3.431,0,6.212-2.78,6.212-6.212c0-0.398-0.035-0.783-0.107-1.16
		c-1.292-21.776-2.582-59.448-2.582-95.444V17.47c0-3.431-2.78-6.212-6.212-6.212H402.523c-3.431,0-6.212,2.78-6.212,6.212v159.745
		c-17.979-17.323-46.369-27.008-80.466-27.008c-38.513,0-74.612,14.98-101.653,42.185c-32.698,32.9-49.8,79.959-49.46,136.056
		C164.732,428.281,225.499,500.739,309.23,500.739z M341.648,408.255c-38.614,0-62.601-31.846-62.601-83.112
		c0-39.561,16.573-85.761,63.267-85.761c29.578,0,47.78,22.29,52.76,44.471c0.606,4.9,1.237,11.797,1.237,16.804v42.346
		c0,8.865-0.728,15.301-2.428,21.517c-0.035,0.122-0.062,0.244-0.092,0.368C388.367,390.827,367.412,408.255,341.648,408.255z"/>
</g>
<g>
</g>
<g>
</g>
<g>
</g>
<g>
</g>
<g>
</g>
<g>
</g>
<g>
</g>
<g>
</g>
<g>
</g>
<g>
</g>
<g>
</g>
<g>
</g>
<g>
</g>
<g>
</g>
<g>
</g>
</svg>
