<svg id="Capa_1" enable-background="new 0 0 512 512" height="512" viewBox="0 0 512 512" width="512" xmlns="http://www.w3.org/2000/svg"><g><path d="m391 331.99h29.099c-3.6 33.6-31.8 60.01-66.599 60.01-37.2 0-67.5-30.3-67.5-67.5v-114.5l60-30v-30h-60v-38.401c17.999-10.199 30-29.399 30-51.599 0-32.999-27.001-60-60-60s-60 27.001-60 60c0 22.2 12.001 41.4 30 51.599v38.401h-60v30l60 30v114.5c0 37.2-30.3 67.5-67.5 67.5-34.799 0-62.999-26.4-66.599-60h29.099l-60-90-61 90h31c0 63.9 58.2 152.999 128.401 152.999 18.3 0 37.2-5.7 53.399-16.199l43.2 43.2 43.2-43.2c16.199 10.499 35.099 16.199 53.399 16.199 70.201 0 128.401-89.099 128.401-152.999h31l-61-90zm-120-256.99h-30v-30h30z"/></g></svg>