<?xml version="1.0" encoding="UTF-8"?>
<svg xmlns="http://www.w3.org/2000/svg" xml:space="preserve" width="1200" height="800" version="1.1" style="shape-rendering:geometricPrecision; text-rendering:geometricPrecision; image-rendering:optimizeQuality; fill-rule:evenodd; clip-rule:evenodd"
viewBox="0 0 2340 1560">
 <defs>
  <style type="text/css">
   <![CDATA[
    .str1 {stroke:#000;stroke-width:2.7;stroke-linecap:round}
    .str3 {stroke:#000;stroke-width:5.4;stroke-linecap:round;stroke-linejoin:round}
    .str0 {stroke:#000;stroke-width:4.5;stroke-linecap:round;stroke-linejoin:round}
    .str4 {stroke:#000;stroke-width:3.6;stroke-linecap:round;stroke-linejoin:round}
    .str2 {stroke:#000;stroke-width:2.7;stroke-linecap:round;stroke-linejoin:round}
    .str5 {stroke:#000;stroke-width:1.8;stroke-linecap:round;stroke-linejoin:round}
    .fil4 {fill:none}
    .fil1 {fill:#FFF}
    .fil0 {fill:#fdbe01}
    .fil2 {fill:#f80000}
    .fil3 {fill:#000}
   ]]>
  </style>
 </defs>
 <g id="Layer_x0020_1">
  <metadata id="CorelCorpID_0Corel-Layer"/>
  <rect class="fil0" width="2340" height="1560"/>
  <rect class="fil1" width="1560" height="1560"/>
  <rect class="fil2" width="780" height="1560"/>
  <g id="_695482576">
   <g>
    <path class="fil0" d="M1156 1219c-5,-7 -8,-6 -10,-1 -5,-9 -10,-13 -14,-16 -7,12 -14,13 -20,2 -26,-44 -61,-47 -113,-76 -87,-48 -183,-123 -107,-274 -10,-4 -18,-16 -15,-35 3,-25 -9,-38 -23,-43l0 0c-10,-4 -14,-11 -16,-22 -1,-25 30,-35 44,-19 9,13 2,28 -5,31 20,-7 23,-31 21,-97 -2,-46 -6,-77 -13,-93 0,2 1,4 1,6 0,23 -43,26 -44,-8 2,-16 12,-23 23,-24l-1 -1c57,-4 41,-33 51,-45 10,-18 32,-22 49,0 8,7 16,11 23,13 4,2 7,2 11,3 18,1 36,-10 62,-27l-18 -77 -26 -13 -15 -53 75 -18 33 24 6 43 21 -2 -10 -15 -2 -54 92 0 -2 54 -10 15 21 2 6 -43 33 -24 75 18 -15 53 -26 13 -18 77c21,13 37,23 51,26 4,1 8,1 11,1 11,-1 22,-6 34,-16 6,-8 13,-13 20,-14 3,-1 5,-1 7,-1 9,1 17,6 22,15 10,12 -6,41 50,45l0 1c11,1 21,8 23,24 -1,34 -44,31 -44,8 0,-2 1,-4 1,-6 -7,16 -11,47 -13,93 -2,66 1,90 21,97 -7,-3 -14,-18 -5,-31 14,-16 45,-6 44,19 -2,11 -6,18 -16,22 -14,5 -26,18 -23,43 3,19 -5,31 -15,35 76,151 -20,226 -107,274 -52,29 -87,32 -113,76 -7,11 -13,10 -20,-2 -4,3 -9,7 -14,16 -2,-5 -5,-6 -10,1 -2,3 -5,7 -14,13 -9,-6 -12,-10 -14,-13zm292 -365l0 0 0 0zm-556 0l0 1 0 -1 0 0zm18 -1l0 0zm520 0l0 0 0 0zm-558 -86l-1 0c0,0 2,0 1,0zm597 0l-1 0c-1,0 1,0 1,0zm-594 0l-3 0c-1,0 1,0 3,0zm593 0l-3 0c2,0 4,0 3,0zm-599 0l0 0 2 0c-1,0 -2,0 -2,0zm600 0l2 0 0 0c0,0 -1,0 -2,0zm-600 0c-1,0 -1,0 0,0l-2 0c0,0 1,0 1,0 1,0 1,0 1,0zm602 0c1,0 2,0 0,0 1,0 1,0 0,0zm-605 0l0 0 1 0c0,0 -1,0 -1,0zm607 0l1 0 0 0c0,0 0,0 0,0 0,0 0,0 -1,0zm-596 -1c-1,1 -1,1 -2,1 1,0 1,0 2,-1zm586 0c1,1 1,1 2,1 -1,0 -1,0 -2,-1zm-597 1c-1,-1 -1,0 0,0 0,0 0,0 0,0 0,0 0,0 0,0zm608 0c0,0 1,-1 0,0l0 0c0,0 0,0 0,0zm-608 0l-1 -1 1 1c0,0 0,0 0,0zm608 0l1 -1 -1 1c0,0 0,0 0,0zm-610 -1l0 0 1 0c-1,0 -1,0 -1,0zm611 0l1 0 0 0c0,0 0,0 -1,0zm-611 0c-1,0 -1,0 0,0 0,0 0,0 0,0 0,0 -1,0 0,0zm612 0c1,0 2,0 0,0 1,0 1,0 0,0zm-612 0l-1 0 1 0c-1,0 -1,0 0,0zm612 0l1 0 -1 0 0 0zm-614 -1l0 0 1 1c-1,-1 -1,-1 -1,-1zm615 1l1 -1 0 0c0,0 0,0 -1,1zm-616 -1c0,0 1,0 1,0 -1,0 -1,0 -1,0zm618 0c0,0 -1,0 -1,0 1,0 1,0 1,0zm0 0c0,0 0,0 0,0l-1 0c0,0 1,0 1,0zm-617 0l-1 0c0,-1 0,0 0,0 0,0 0,0 1,0zm-2 -1l0 0c0,0 0,0 0,0l0 0 1 1c0,-1 -1,-1 -1,-1zm619 1l1 -1c1,-1 1,-1 0,0l0 0 0 0c0,0 0,0 -1,1zm-619 -2c0,0 0,1 0,1 -1,-1 -1,-1 0,-1zm620 1l0 0c1,-1 2,-3 0,0 0,-1 0,0 0,0zm-620 0c0,-1 0,-1 0,-1 -1,0 -1,0 0,1 0,0 0,0 0,0zm620 0l0 0c0,0 0,0 0,0l0 0 0 0c0,0 0,0 0,0zm0 0l0 0 0 0c0,-1 0,-1 0,0 0,0 0,0 0,0zm0 0l0 0 0 0 0 0 0 0zm0 0l0 0 0 0c0,0 0,0 0,0l0 0zm0 0l0 0 0 0 0 0 0 0zm0 0l0 0c0,-1 0,-1 0,-1l0 1 0 0c2,-2 1,-1 0,0zm0 0l0 0 0 0c0,0 0,0 0,0zm-620 0l-4 -6c-1,-1 -1,0 3,4 -1,0 0,1 1,2zm620 0l4 -6 0 -1c0,1 -1,3 -4,7zm0 0l0 -1 0 0c0,0 0,1 0,1zm-620 -1c-2,-1 -1,0 0,1l0 0c-1,-2 -2,-3 0,-1zm620 1l0 0 1 -1c-1,0 -1,0 -1,1zm0 0l0 0c2,-3 2,-3 2,-2l-2 2zm0 -1l0 0c1,0 1,0 0,0zm2 -1c0,-1 0,0 -1,1 0,-1 1,-1 1,-1zm-622 1l0 0c-1,0 -1,0 0,0zm620 0c0,0 0,0 0,0 1,0 1,0 0,0zm-621 -1c-1,-1 -1,-1 1,1l-1 -1zm-3 -4l-1 -5c0,1 0,3 1,5zm629 -5l-1 4c1,-1 1,-1 0,1 1,-2 1,-4 1,-5zm-630 0l0 0c0,-1 0,0 0,0zm630 0c0,0 0,-1 0,0l0 0zm-630 -2l0 0c1,0 1,0 0,0l0 2c0,-1 0,-1 0,-2zm630 2l0 -2c-1,0 -1,0 0,0l0 0c0,0 0,1 0,2zm-630 -2c0,0 0,0 1,0 0,-2 0,-1 -1,0 0,0 0,0 0,0zm630 0c-1,-1 -1,-2 -1,0 0,0 1,0 1,0zm-630 0l2 -3 0 0 0 0c0,0 -1,1 -1,3 -1,0 -1,0 -1,0zm630 0c-2,-3 -2,-3 -2,-3l0 0 2 3c0,0 -1,0 0,0zm0 0l0 0c-1,-2 -1,-1 0,0 -1,-1 -1,-1 0,0zm-1 0c0,0 0,-1 1,0l-1 0zm-617 -4c0,0 0,1 1,1 -1,-1 -2,-1 -1,-1zm606 0c0,0 0,0 -1,1 1,0 1,-1 1,-1zm-616 1l0 0c0,0 0,0 0,0l0 0 0 0 0 0c0,0 0,0 0,0zm0 0c1,-1 0,0 0,0 0,0 1,-1 0,0zm626 0c0,0 0,0 0,0l0 0c0,0 -1,-1 0,0zm0 0l0 0c0,0 0,0 0,0 0,0 0,0 0,0 0,0 0,0 0,0zm-626 0l0 0 0 0 0 0zm0 0l0 0 0 0 0 0zm626 0c0,0 -1,-1 0,0l0 0 0 0zm-626 0l0 0 0 0 0 0zm626 0l0 0c-1,-1 -1,-1 0,0l0 0zm0 0l0 0 0 0 0 0zm-626 0l0 0 0 0c0,0 0,0 0,0zm626 0l0 0 0 0c0,0 0,0 0,0zm-626 0c1,-1 1,-1 0,0l0 0c1,-1 1,-1 0,0zm626 0l0 0 0 0c-1,-1 -1,-1 0,0zm-626 0l0 0c1,-1 1,-1 0,0zm626 0l0 0c-1,-1 -1,-1 0,0l0 0zm-626 0l2 -2c0,0 1,-1 2,-1 -1,0 -2,1 -2,1l-2 2zm626 0l-2 -2c0,0 -1,-1 -2,-1 1,0 2,1 2,1l2 2zm-10 -1l1 -1c0,0 0,0 -1,1zm-606 0l-1 -1c0,0 0,0 1,1zm-1 -1l0 0 0 0c0,0 0,0 0,0zm608 0l0 0 0 0c0,0 0,0 0,0zm-608 0c-1,0 -1,0 0,0 -1,0 -1,0 0,0zm608 0l1 0c0,-1 0,0 -1,0 0,0 0,0 0,0 1,0 1,0 0,0zm-608 0l-1 0 0 0 1 0c0,0 0,0 0,0zm-1 0l0 -1c-1,0 -1,0 0,0 -1,0 0,0 0,1zm610 -1l0 0 0 1c0,-1 1,-1 0,-1zm-610 0c-1,0 -1,0 0,0l0 0zm610 0c1,0 1,0 0,0 1,0 1,0 0,0zm1 0l-1 0 0 0 1 0zm-612 0l1 0 0 0 -1 0zm-3 0l0 0 0 0c0,0 0,0 0,0zm618 0l0 0c-1,0 -1,0 0,0 0,0 0,0 0,0zm-615 0l0 0c-1,0 -2,0 -1,0 0,0 0,0 1,0zm613 0l-1 0 0 0c1,0 1,0 1,0zm-616 0c0,0 0,0 0,0 0,0 1,0 0,0zm618 0c0,0 0,0 0,0l0 0zm-617 0l-1 0 0 0 1 0zm616 0l1 0 0 0 -1 0zm-614 0c-1,0 -1,0 -1,0l1 0zm613 0c0,0 0,0 -1,0 1,0 2,0 1,0zm-614 0l1 0 -1 0 0 0zm614 0l-1 0 1 0 0 0zm-618 -167c0,0 1,3 3,7 -2,-3 -3,-5 -3,-7zm622 0c0,2 -1,4 -3,7 2,-4 3,-7 3,-7zm-622 0l0 -2c0,0 0,1 0,2zm622 -2l0 2c0,-1 0,-2 0,-2zm-604 -9c3,2 5,5 8,9 -2,-4 -5,-7 -8,-9zm586 0c-3,2 -6,5 -8,9 3,-4 5,-7 8,-9zm-604 7l0 0c0,0 0,1 0,1l0 1c0,-1 0,-1 0,-2zm622 2l0 -1c0,-1 -1,-1 0,-1 -1,0 -1,0 0,0l0 0c0,0 0,1 0,2zm-622 -2c0,0 0,0 0,1 0,-1 1,-2 0,-1zm622 1c0,-1 0,-1 0,-1 -1,-1 0,0 0,1zm-622 -1l3 -5c-1,1 -1,2 -2,5 0,0 -1,0 -1,0zm621 0c-1,-4 -1,-4 -2,-5l3 5c0,0 0,0 -1,0zm0 0c0,0 0,0 0,0 1,0 1,0 1,0 0,0 -1,0 -1,0zm-620 0c0,-2 0,-2 -1,0 0,0 0,0 0,0 0,0 1,0 1,0zm621 0c-1,-2 -1,-2 -1,0l1 0 0 0zm-1 0c0,-2 0,-2 0,0 0,0 0,0 0,0zm-618 -5l0 0 0 0c0,0 0,0 0,0zm616 0l0 0 0 0c0,0 0,0 0,0zm-616 0l0 -1c0,1 0,1 0,1 0,0 0,-1 0,0zm616 -1l0 1c0,-1 0,0 0,0 0,0 0,0 0,-1zm-616 1l1 -1 -1 0 0 1c0,-1 0,0 0,0zm616 0l0 -1 -1 0 1 1c0,0 0,-1 0,0zm0 -1c0,0 0,0 0,0 -1,0 -1,0 0,0zm-616 0c0,0 0,0 0,0 1,0 1,0 0,0zm8 -3c1,0 1,0 2,0 -1,0 -1,0 -2,0 -2,0 -5,1 -7,3 3,-2 5,-3 7,-3zm600 0c-1,0 -1,0 -2,0 1,0 1,0 2,0 2,0 4,1 7,3 -2,-2 -5,-3 -7,-3zm-598 0c2,0 4,1 5,2 -1,-1 -3,-2 -5,-2zm596 0c-2,0 -4,1 -5,2 1,-1 3,-2 5,-2z"/>
    <path id="1" class="fil4 str0" d="M1156 1219c-5,-7 -8,-6 -10,-1 -5,-9 -10,-13 -14,-16 -7,12 -14,13 -20,2 -26,-44 -61,-47 -113,-76 -87,-48 -183,-123 -107,-274 -10,-4 -18,-16 -15,-35 3,-25 -9,-38 -23,-43l0 0c-10,-4 -14,-11 -16,-22 -1,-25 30,-35 44,-19 9,13 2,28 -5,31 20,-7 23,-31 21,-97 -2,-46 -6,-77 -13,-93 0,2 1,4 1,6 0,23 -43,26 -44,-8 2,-16 12,-23 23,-24l-1 -1c57,-4 41,-33 51,-45 10,-18 32,-22 49,0 8,7 16,11 23,13 4,2 7,2 11,3 18,1 36,-10 62,-27l-18 -77 -26 -13 -15 -53 75 -18 33 24 6 43 21 -2 -10 -15 -2 -54 92 0 -2 54 -10 15 21 2 6 -43 33 -24 75 18 -15 53 -26 13 -18 77c21,13 37,23 51,26 4,1 8,1 11,1 11,-1 22,-6 34,-16 6,-8 13,-13 20,-14 3,-1 5,-1 7,-1 9,1 17,6 22,15 10,12 -6,41 50,45l0 1c11,1 21,8 23,24 -1,34 -44,31 -44,8 0,-2 1,-4 1,-6 -7,16 -11,47 -13,93 -2,66 1,90 21,97 -7,-3 -14,-18 -5,-31 14,-16 45,-6 44,19 -2,11 -6,18 -16,22 -14,5 -26,18 -23,43 3,19 -5,31 -15,35 76,151 -20,226 -107,274 -52,29 -87,32 -113,76 -7,11 -13,10 -20,-2 -4,3 -9,7 -14,16 -2,-5 -5,-6 -10,1 -2,3 -5,7 -14,13 -9,-6 -12,-10 -14,-13zm292 -365l0 0m-556 0l0 1 0 -1m18 -1l0 0zm520 0l0 0m-558 -86l-1 0c0,0 2,0 1,0zm597 0l-1 0c-1,0 1,0 1,0zm-594 0l-3 0c-1,0 1,0 3,0zm593 0l-3 0c2,0 4,0 3,0zm-599 0l0 0 2 0c-1,0 -2,0 -2,0zm600 0l2 0 0 0c0,0 -1,0 -2,0zm-600 0c-1,0 -1,0 0,0l-2 0c0,0 1,0 1,0 1,0 1,0 1,0zm602 0c1,0 2,0 0,0 1,0 1,0 0,0zm-605 0l0 0 1 0c0,0 -1,0 -1,0zm607 0l1 0 0 0c0,0 0,0 0,0 0,0 0,0 -1,0zm-596 -1c-1,1 -1,1 -2,1 1,0 1,0 2,-1zm586 0c1,1 1,1 2,1 -1,0 -1,0 -2,-1zm-597 1c-1,-1 -1,0 0,0 0,0 0,0 0,0 0,0 0,0 0,0zm608 0c0,0 1,-1 0,0l0 0c0,0 0,0 0,0zm-608 0l-1 -1 1 1c0,0 0,0 0,0zm608 0l1 -1 -1 1c0,0 0,0 0,0zm-610 -1l0 0 1 0c-1,0 -1,0 -1,0zm611 0l1 0 0 0c0,0 0,0 -1,0zm-611 0c-1,0 -1,0 0,0 0,0 0,0 0,0 0,0 -1,0 0,0zm612 0c1,0 2,0 0,0 1,0 1,0 0,0zm-612 0l-1 0 1 0c-1,0 -1,0 0,0zm612 0l1 0 -1 0 0 0zm-614 -1l0 0 1 1c-1,-1 -1,-1 -1,-1zm615 1l1 -1 0 0c0,0 0,0 -1,1zm-616 -1c0,0 1,0 1,0 -1,0 -1,0 -1,0zm618 0c0,0 -1,0 -1,0 1,0 1,0 1,0zm0 0c0,0 0,0 0,0l-1 0c0,0 1,0 1,0zm-617 0l-1 0c0,-1 0,0 0,0 0,0 0,0 1,0zm-2 -1l0 0c0,0 0,0 0,0l0 0 1 1c0,-1 -1,-1 -1,-1zm619 1l1 -1c1,-1 1,-1 0,0l0 0 0 0c0,0 0,0 -1,1zm-619 -2c0,0 0,1 0,1 -1,-1 -1,-1 0,-1zm620 1l0 0c1,-1 2,-3 0,0 0,-1 0,0 0,0zm-620 0c0,-1 0,-1 0,-1 -1,0 -1,0 0,1 0,0 0,0 0,0zm620 0l0 0c0,0 0,0 0,0l0 0 0 0c0,0 0,0 0,0zm0 0l0 0 0 0c0,-1 0,-1 0,0 0,0 0,0 0,0zm0 0l0 0 0 0 0 0 0 0zm0 0l0 0 0 0c0,0 0,0 0,0l0 0zm0 0l0 0 0 0 0 0 0 0zm0 0l0 0c0,-1 0,-1 0,-1l0 1 0 0c2,-2 1,-1 0,0zm0 0l0 0 0 0c0,0 0,0 0,0zm-620 0l-4 -6c-1,-1 -1,0 3,4 -1,0 0,1 1,2zm620 0l4 -6 0 -1c0,1 -1,3 -4,7zm0 0l0 -1 0 0c0,0 0,1 0,1zm-620 -1c-2,-1 -1,0 0,1l0 0c-1,-2 -2,-3 0,-1zm620 1l0 0 1 -1c-1,0 -1,0 -1,1zm0 0l0 0c2,-3 2,-3 2,-2l-2 2zm0 -1l0 0c1,0 1,0 0,0zm2 -1c0,-1 0,0 -1,1 0,-1 1,-1 1,-1zm-622 1l0 0c-1,0 -1,0 0,0zm620 0c0,0 0,0 0,0 1,0 1,0 0,0zm-621 -1c-1,-1 -1,-1 1,1l-1 -1zm-3 -4l-1 -5c0,1 0,3 1,5zm629 -5l-1 4c1,-1 1,-1 0,1 1,-2 1,-4 1,-5zm-630 0l0 0c0,-1 0,0 0,0zm630 0c0,0 0,-1 0,0l0 0zm-630 -2l0 0c1,0 1,0 0,0l0 2c0,-1 0,-1 0,-2zm630 2l0 -2c-1,0 -1,0 0,0l0 0c0,0 0,1 0,2zm-630 -2c0,0 0,0 1,0 0,-2 0,-1 -1,0 0,0 0,0 0,0zm630 0c-1,-1 -1,-2 -1,0 0,0 1,0 1,0zm-630 0l2 -3 0 0 0 0c0,0 -1,1 -1,3 -1,0 -1,0 -1,0zm630 0c-2,-3 -2,-3 -2,-3l0 0 2 3c0,0 -1,0 0,0zm0 0l0 0c-1,-2 -1,-1 0,0 -1,-1 -1,-1 0,0zm-1 0c0,0 0,-1 1,0l-1 0zm-617 -4c0,0 0,1 1,1 -1,-1 -2,-1 -1,-1zm606 0c0,0 0,0 -1,1 1,0 1,-1 1,-1zm-616 1l0 0c0,0 0,0 0,0l0 0 0 0 0 0c0,0 0,0 0,0zm0 0c1,-1 0,0 0,0 0,0 1,-1 0,0zm626 0c0,0 0,0 0,0l0 0c0,0 -1,-1 0,0zm0 0l0 0c0,0 0,0 0,0 0,0 0,0 0,0 0,0 0,0 0,0zm-626 0l0 0 0 0 0 0zm0 0l0 0 0 0 0 0zm626 0c0,0 -1,-1 0,0l0 0 0 0zm-626 0l0 0 0 0 0 0zm626 0l0 0c-1,-1 -1,-1 0,0l0 0zm0 0l0 0 0 0 0 0zm-626 0l0 0 0 0c0,0 0,0 0,0zm626 0l0 0 0 0c0,0 0,0 0,0zm-626 0c1,-1 1,-1 0,0l0 0c1,-1 1,-1 0,0zm626 0l0 0 0 0c-1,-1 -1,-1 0,0zm-626 0l0 0c1,-1 1,-1 0,0zm626 0l0 0c-1,-1 -1,-1 0,0l0 0zm-626 0l2 -2c0,0 1,-1 2,-1 -1,0 -2,1 -2,1l-2 2zm626 0l-2 -2c0,0 -1,-1 -2,-1 1,0 2,1 2,1l2 2zm-10 -1l1 -1c0,0 0,0 -1,1zm-606 0l-1 -1c0,0 0,0 1,1zm-1 -1l0 0 0 0c0,0 0,0 0,0zm608 0l0 0 0 0c0,0 0,0 0,0zm-608 0c-1,0 -1,0 0,0 -1,0 -1,0 0,0zm608 0l1 0c0,-1 0,0 -1,0 0,0 0,0 0,0 1,0 1,0 0,0zm-608 0l-1 0 0 0 1 0c0,0 0,0 0,0zm-1 0l0 -1c-1,0 -1,0 0,0 -1,0 0,0 0,1zm610 -1l0 0 0 1c0,-1 1,-1 0,-1zm-610 0c-1,0 -1,0 0,0l0 0zm610 0c1,0 1,0 0,0 1,0 1,0 0,0zm1 0l-1 0 0 0 1 0zm-612 0l1 0 0 0 -1 0zm-3 0l0 0 0 0c0,0 0,0 0,0zm618 0l0 0c-1,0 -1,0 0,0 0,0 0,0 0,0zm-615 0l0 0c-1,0 -2,0 -1,0 0,0 0,0 1,0zm613 0l-1 0 0 0c1,0 1,0 1,0zm-616 0c0,0 0,0 0,0 0,0 1,0 0,0zm618 0c0,0 0,0 0,0l0 0zm-617 0l-1 0 0 0 1 0zm616 0l1 0 0 0 -1 0zm-614 0c-1,0 -1,0 -1,0l1 0zm613 0c0,0 0,0 -1,0 1,0 2,0 1,0zm-614 0l1 0 -1 0 0 0zm614 0l-1 0 1 0 0 0zm-618 -167c0,0 1,3 3,7 -2,-3 -3,-5 -3,-7zm622 0c0,2 -1,4 -3,7 2,-4 3,-7 3,-7zm-622 0l0 -2c0,0 0,1 0,2zm622 -2l0 2c0,-1 0,-2 0,-2zm-604 -9c3,2 5,5 8,9 -2,-4 -5,-7 -8,-9zm586 0c-3,2 -6,5 -8,9 3,-4 5,-7 8,-9zm-604 7l0 0c0,0 0,1 0,1l0 1c0,-1 0,-1 0,-2zm622 2l0 -1c0,-1 -1,-1 0,-1 -1,0 -1,0 0,0l0 0c0,0 0,1 0,2zm-622 -2c0,0 0,0 0,1 0,-1 1,-2 0,-1zm622 1c0,-1 0,-1 0,-1 -1,-1 0,0 0,1zm-622 -1l3 -5c-1,1 -1,2 -2,5 0,0 -1,0 -1,0zm621 0c-1,-4 -1,-4 -2,-5l3 5c0,0 0,0 -1,0zm0 0c0,0 0,0 0,0 1,0 1,0 1,0 0,0 -1,0 -1,0zm-620 0c0,-2 0,-2 -1,0 0,0 0,0 0,0 0,0 1,0 1,0zm621 0c-1,-2 -1,-2 -1,0l1 0 0 0zm-1 0c0,-2 0,-2 0,0 0,0 0,0 0,0zm-618 -5l0 0 0 0c0,0 0,0 0,0zm616 0l0 0 0 0c0,0 0,0 0,0zm-616 0l0 -1c0,1 0,1 0,1 0,0 0,-1 0,0zm616 -1l0 1c0,-1 0,0 0,0 0,0 0,0 0,-1zm-616 1l1 -1 -1 0 0 1c0,-1 0,0 0,0zm616 0l0 -1 -1 0 1 1c0,0 0,-1 0,0zm0 -1c0,0 0,0 0,0 -1,0 -1,0 0,0zm-616 0c0,0 0,0 0,0 1,0 1,0 0,0zm8 -3c1,0 1,0 2,0 -1,0 -1,0 -2,0 -2,0 -5,1 -7,3 3,-2 5,-3 7,-3zm600 0c-1,0 -1,0 -2,0 1,0 1,0 2,0 2,0 4,1 7,3 -2,-2 -5,-3 -7,-3zm-598 0c2,0 4,1 5,2 -1,-1 -3,-2 -5,-2zm596 0c-2,0 -4,1 -5,2 1,-1 3,-2 5,-2z"/>
   </g>
   <polygon class="fil0 str1" points="1131,332 1131,354 1151,354 1151,332 "/>
   <polygon class="fil0 str1" points="1156,332 1156,354 1208,354 1208,332 "/>
   <polygon class="fil0 str1" points="1208,358 1208,379 1188,379 1188,358 "/>
   <polygon class="fil0 str1" points="1182,358 1182,379 1131,379 1131,358 "/>
   <polygon class="fil0 str2" points="1134,384 1182,384 1181,398 1142,398 "/>
   <polygon class="fil0 str2" points="1207,384 1188,384 1185,398 1198,398 "/>
   <g id="_830878048">
    <path class="fil4 str3" d="M912 515c11,-8 23,-11 34,0"/>
    <path class="fil4 str3" d="M909 526c7,-3 14,-3 23,2"/>
    <path class="fil4 str3" d="M905 533c6,1 12,3 16,8"/>
    <path class="fil4 str3" d="M900 540c4,2 8,4 11,8"/>
    <path class="fil4 str3" d="M891 544c7,4 13,9 15,17"/>
    <path class="fil4 str3" d="M1428 515c-11,-8 -23,-11 -34,0"/>
    <path class="fil4 str3" d="M1431 526c-7,-3 -14,-3 -23,2"/>
    <path class="fil4 str3" d="M1435 533c-6,1 -12,3 -16,8"/>
    <path class="fil4 str3" d="M1440 540c-4,2 -8,4 -11,8"/>
    <path class="fil4 str3" d="M1449 544c-7,4 -13,9 -15,17"/>
   </g>
   <g id="_830877344">
    <path class="fil0 str4" d="M1113 522c-4,-19 -22,-23 -29,-9 -7,20 5,31 19,32 19,-1 28,-17 22,-40 -11,-28 -43,-27 -65,-11 -49,29 -65,35 -96,10 39,66 98,-12 130,-12 16,0 25,18 19,30z"/>
    <path class="fil0 str4" d="M1227 522c4,-19 21,-23 29,-9 7,20 -5,31 -19,32 -19,-1 -28,-17 -22,-40 11,-28 43,-27 65,-11 49,29 65,35 96,10 -39,66 -98,-12 -130,-12 -16,0 -25,18 -19,30z"/>
   </g>
   <g id="_695830624">
    <path class="fil0 str3" d="M862 585c-6,-9 -1,-21 8,-20 16,-2 25,32 28,104 2,68 -1,91 -23,98 -16,3 -26,-12 -16,-21 3,-2 7,-1 9,2 -2,-4 -7,-4 -9,-2 -10,8 -1,24 16,21 7,-1 17,-18 7,-32 -14,-16 -45,-6 -44,19 3,13 8,21 25,26 27,7 49,-17 50,-56 1,-55 4,-123 -23,-164 -14,-17 -45,-14 -48,14 1,34 44,31 44,8 -3,-11 -8,-18 -16,-17 -9,0 -14,11 -8,20z"/>
    <path class="fil0 str3" d="M1478 585c6,-9 1,-21 -8,-20 -16,-2 -25,32 -28,104 -2,68 1,91 23,98 16,3 26,-12 16,-21 -3,-2 -7,-1 -9,2 2,-4 7,-4 9,-2 10,8 1,24 -16,21 -7,-1 -17,-18 -7,-32 14,-16 45,-6 44,19 -3,13 -8,21 -25,26 -27,7 -49,-17 -50,-56 -1,-55 -4,-123 23,-164 14,-17 45,-14 48,14 -1,34 -44,31 -44,8 3,-11 8,-18 16,-17 9,0 14,11 8,20z"/>
   </g>
   <path class="fil4 str4" d="M1170 1178c6,0 12,5 12,12 0,7 -6,12 -12,12 -7,0 -12,-5 -12,-12 0,-7 5,-12 12,-12z"/>
   <path class="fil0 str4" d="M894 913c20,-8 37,16 25,34 -11,12 -22,5 -20,-3 -2,6 6,11 11,4 6,-7 0,-16 -8,-15 -10,0 -16,9 -18,19 -4,40 12,78 41,114 -47,-29 -70,-135 -31,-153z"/>
   <g id="_695829376">
    <path class="fil0 str3" d="M928 549l485 0 0 361c0,135 -109,243 -243,243 -134,0 -243,-108 -243,-243l1 -361z"/>
    <path class="fil2 str3" d="M940 910l1 -349 460 0 0 349c0,128 -104,231 -231,231 -127,0 -230,-103 -230,-231z"/>
   </g>
   <g id="_682617024">
    <g>
     <polygon class="fil3 str5" points="1170,455 1170,504 1184,485 "/>
     <polygon class="fil0 str5" points="1170,455 1170,504 1156,485 "/>
    </g>
    <g>
     <polygon class="fil3 str5" points="1123,489 1170,504 1156,485 "/>
     <polygon class="fil0 str5" points="1123,489 1170,504 1147,512 "/>
    </g>
    <g>
     <polygon class="fil3 str5" points="1141,544 1170,504 1147,512 "/>
     <polygon class="fil0 str5" points="1141,544 1170,504 1170,528 "/>
    </g>
    <g>
     <polygon class="fil3 str5" points="1199,544 1170,504 1170,528 "/>
     <polygon class="fil0 str5" points="1199,544 1170,504 1193,512 "/>
    </g>
    <g>
     <polygon class="fil3 str5" points="1217,489 1170,504 1193,512 "/>
     <polygon class="fil0 str5" points="1217,489 1170,504 1184,485 "/>
    </g>
   </g>
   <g id="_833357456">
    <path class="fil1 str3" d="M1170 716l0 0 5 0c16,-4 28,-17 28,-34 0,-16 -12,-30 -27,-33l-6 -1 0 0 0 0 -1 0 0 0 -6 1c-15,3 -27,17 -27,33 0,17 12,30 28,34l5 0 0 0 1 0 0 0zm0 -11l-4 0c-11,-2 -19,-12 -19,-23 0,-11 8,-20 19,-22l4 -1 3 1c11,2 19,11 19,22 0,11 -8,21 -19,23l-3 0z"/>
    <path class="fil1 str3" d="M1180 727l0 -24 0 0 0 -2c-1,-2 -3,-3 -5,-3 -2,0 -4,2 -4,5l0 0 0 24 9 0z"/>
    <path class="fil1 str3" d="M1160 727l0 -24 0 0 1 -2c0,-2 2,-3 4,-3 3,0 5,2 5,5l0 0 0 24 -10 0z"/>
    <path class="fil1 str3" d="M1073 917c-3,4 -5,7 -7,13 -6,-20 -6,-39 -7,-62 6,12 19,25 32,35 -6,1 -8,2 -10,5 21,36 79,20 75,-38l14 0 14 0c-4,58 54,74 75,38 -2,-3 -4,-4 -11,-5 14,-10 27,-23 33,-35 -1,23 -1,42 -7,62 -2,-6 -4,-9 -7,-13 -9,17 -24,24 -42,24 -15,0 -29,-5 -38,-17l-17 -9 -17 9c-9,12 -23,17 -38,17 -18,0 -33,-7 -42,-24z"/>
    <path class="fil1 str3" d="M1043 964c-5,7 -7,10 -9,16 -6,-26 -9,-50 -9,-76 14,23 27,32 43,44 -6,0 -11,1 -15,5 30,44 102,35 103,-55l-9 -177 23 0 23 0 -9 177c1,90 73,99 103,55 -4,-4 -10,-5 -15,-5 16,-12 29,-21 43,-44 0,26 -3,50 -9,76 -2,-6 -4,-9 -9,-16 -15,26 -50,35 -62,33 -23,0 -62,-29 -65,-67 -3,38 -42,67 -65,67 -12,2 -47,-7 -62,-33z"/>
   </g>
   <path class="fil0 str4" d="M1050 1141c-35,-15 -71,-34 -100,-64 -11,-14 -10,-23 -4,-28 11,-7 16,14 1,10 4,6 12,2 14,-6 2,-17 -16,-21 -26,-14 -11,12 -6,29 13,47 42,31 87,49 117,61l-15 -6z"/>
   <g id="_692281376">
    <polygon class="fil0 str2" points="1008,353 1025,349 1030,370 1013,374 "/>
    <polygon class="fil0 str2" points="1029,348 1075,338 1078,359 1035,369 "/>
    <polygon class="fil0 str2" points="1079,339 1106,358 1107,373 1083,359 "/>
    <polygon class="fil0 str2" points="1084,364 1108,378 1110,398 1087,384 "/>
    <polygon class="fil0 str2" points="1080,364 1083,384 1068,388 1064,367 "/>
    <polygon class="fil0 str2" points="1059,368 1015,378 1020,400 1063,388 "/>
    <polygon class="fil0 str2" points="1062,394 1077,405 1046,413 1027,403 "/>
    <polygon class="fil0 str2" points="1069,392 1085,404 1105,401 1086,388 "/>
    <polygon class="fil0 str2" points="1261,339 1234,358 1233,373 1257,359 "/>
    <polygon class="fil0 str2" points="1256,364 1232,378 1230,398 1253,384 "/>
    <polygon class="fil0 str2" points="1257,389 1299,397 1279,409 1235,401 "/>
    <polygon class="fil0 str2" points="1286,409 1304,398 1318,401 1299,413 "/>
    <path class="fil0 str2" d="M1137 423l-1 -19c11,0 23,-1 34,-1 12,0 23,0 34,1l-1 19c-11,-1 -22,-1 -33,-1 -11,0 -22,1 -33,1z"/>
    <path class="fil0 str2" d="M1070 433l-3 -19c20,-4 41,-7 62,-9l2 19c-21,1 -41,5 -61,9z"/>
    <path class="fil0 str2" d="M1053 438l-5 -19c5,-1 9,-3 14,-4l4 19c-5,1 -9,2 -13,4z"/>
    <path class="fil0 str2" d="M1060 465l-5 -19c15,-5 30,-9 46,-12l3 19c-16,3 -31,7 -44,12zm51 -14l-2 -18c18,-3 38,-4 58,-4l0 17c-20,0 -38,2 -56,5z"/>
    <path class="fil0 str2" d="M1064 486l-4 -14c31,-12 66,-19 105,-20l-11 12c-33,2 -64,10 -90,22z"/>
    <path class="fil0 str2" d="M1270 433l3 -19c-20,-4 -41,-7 -62,-9l-2 19c21,1 41,5 61,9z"/>
    <path class="fil0 str2" d="M1287 438l5 -19c-5,-1 -9,-3 -14,-4l-4 19c5,1 9,2 13,4z"/>
    <path class="fil0 str2" d="M1280 465l5 -19c-15,-5 -30,-9 -46,-12l-3 19c16,3 31,7 44,12zm-51 -14l2 -18c-18,-3 -38,-4 -58,-4l0 17c20,0 38,2 56,5z"/>
    <path class="fil0 str2" d="M1276 486l4 -14c-31,-12 -66,-19 -105,-20l11 12c33,2 64,10 90,22z"/>
    <polygon class="fil0 str2" points="1265,337 1284,342 1279,362 1262,358 "/>
    <polygon class="fil0 str2" points="1288,342 1332,352 1327,374 1283,364 "/>
    <polygon class="fil0 str2" points="1326,379 1321,398 1305,394 1311,375 "/>
    <polygon class="fil0 str2" points="1306,374 1262,363 1258,384 1301,393 "/>
   </g>
   <path class="fil4 str4" d="M1170 1178c6,0 12,5 12,12 0,7 -6,12 -12,12 -7,0 -12,-5 -12,-12 0,-7 5,-12 12,-12z"/>
   <g id="_690696560">
    <path class="fil0 str4" d="M1290 1141c35,-15 71,-34 99,-64 12,-14 11,-23 5,-28 -11,-7 -16,14 -1,10 -4,6 -12,2 -14,-6 -2,-17 16,-21 26,-14 11,12 6,29 -13,47 -42,31 -87,49 -117,61l15 -6z"/>
    <path class="fil0 str4" d="M1446 913c-20,-8 -37,16 -25,34 11,12 22,5 20,-3 2,6 -6,11 -11,4 -6,-7 0,-16 8,-15 10,0 16,9 18,19 4,40 -13,78 -41,114 46,-29 70,-135 31,-153z"/>
    <path class="fil0 str4" d="M894 913c20,-8 37,16 25,34 -11,12 -22,5 -20,-3 -2,6 6,11 11,4 6,-7 0,-16 -8,-15 -10,0 -16,9 -18,19 -4,40 12,78 41,114 -47,-29 -70,-135 -31,-153z"/>
    <path class="fil0 str4" d="M1050 1141c-35,-15 -71,-34 -100,-64 -11,-14 -10,-23 -4,-28 11,-7 16,14 1,10 4,6 12,2 14,-6 2,-17 -16,-21 -26,-14 -11,12 -6,29 13,47 42,31 87,49 117,61l-15 -6z"/>
   </g>
   <g id="_833435984">
    <path class="fil0 str4" d="M1156 1219c-5,-7 -8,-6 -10,-1 -5,-9 -10,-13 -14,-16 -7,12 -14,13 -20,2 -26,-44 -61,-47 -113,-76 -87,-48 -183,-123 -107,-274 6,5 7,14 -2,28 -54,103 10,202 166,261 22,11 52,24 68,50 7,-8 16,-8 20,-8 5,0 8,1 8,5 1,10 7,19 18,24 11,-5 17,-14 18,-24 0,-4 3,-5 8,-5 4,0 13,0 20,8 16,-26 46,-39 68,-50 156,-59 220,-158 165,-261 -8,-14 -7,-23 -1,-28 76,151 -20,226 -107,274 -52,29 -87,32 -113,76 -7,11 -13,10 -20,-2 -4,3 -9,7 -14,16 -2,-5 -5,-6 -10,1 -2,3 -5,7 -14,13 -9,-6 -12,-10 -14,-13z"/>
   </g>
   <g id="_695482928">
    <g>
     <path class="fil4 str4" d="M1466 794c-12,1 -21,-3 -26,-13"/>
     <path class="fil4 str4" d="M1463 804c-9,3 -17,1 -23,-7"/>
     <path class="fil4 str4" d="M1462 815c-9,5 -18,3 -26,-5"/>
     <path class="fil4 str4" d="M1463 826c-10,6 -20,4 -30,-5"/>
     <path class="fil4 str4" d="M1462 838c-9,8 -23,6 -34,-3"/>
     <path class="fil4 str4" d="M1486 776c-14,5 -26,18 -23,43 6,37 -29,47 -41,26"/>
    </g>
    <g>
     <path class="fil4 str4" d="M874 794c12,1 21,-3 26,-13"/>
     <path class="fil4 str4" d="M877 804c9,3 17,1 23,-7"/>
     <path class="fil4 str4" d="M878 815c9,5 18,3 25,-5"/>
     <path class="fil4 str4" d="M877 826c10,6 20,4 30,-5"/>
     <path class="fil4 str4" d="M878 838c9,8 23,6 34,-3"/>
     <path class="fil4 str4" d="M854 776c14,5 26,18 23,43 -6,37 29,47 41,26"/>
    </g>
   </g>
   <path class="fil4 str2" d="M1161 452c6,0 12,0 18,0"/>
  </g>
 </g>
</svg>
